<mxfile host="Electron" modified="2023-11-03T14:55:06.691Z" agent="Mozilla/5.0 (Windows NT 10.0; Win64; x64) AppleWebKit/537.36 (KHTML, like Gecko) draw.io/22.0.3 Chrome/114.0.5735.289 Electron/25.8.4 Safari/537.36" etag="XL0m-Q8HAWXTMS3WvCNw" version="22.0.3" type="device">
  <diagram name="Page-1" id="e7e014a7-5840-1c2e-5031-d8a46d1fe8dd">
    <mxGraphModel dx="2232" dy="1115" grid="1" gridSize="10" guides="1" tooltips="1" connect="1" arrows="1" fold="1" page="1" pageScale="1" pageWidth="1169" pageHeight="826" background="none" math="0" shadow="0">
      <root>
        <mxCell id="0" />
        <mxCell id="1" parent="0" />
        <mxCell id="2" value="To-Do App Context diagram" style="swimlane;whiteSpace=wrap" parent="1" vertex="1">
          <mxGeometry x="41.5" y="16" width="245.5" height="434" as="geometry" />
        </mxCell>
        <mxCell id="6" value="" style="edgeStyle=elbowEdgeStyle;elbow=horizontal;verticalAlign=bottom;endArrow=open;endSize=8;strokeColor=#FF0000;endFill=1;rounded=0" parent="2" edge="1">
          <mxGeometry x="100" y="40" as="geometry">
            <mxPoint x="115.5" y="132" as="targetPoint" />
            <mxPoint x="115.5" y="104" as="sourcePoint" />
          </mxGeometry>
        </mxCell>
        <mxCell id="9" value="" style="endArrow=open;strokeColor=#FF0000;endFill=1;rounded=0;exitX=0.462;exitY=0.985;exitDx=0;exitDy=0;exitPerimeter=0;" parent="2" source="UypfmnPjNJXxVJJN-o11-43" edge="1">
          <mxGeometry relative="1" as="geometry">
            <mxPoint x="115" y="182" as="sourcePoint" />
            <mxPoint x="114.79301423027164" y="223.9999999999999" as="targetPoint" />
          </mxGeometry>
        </mxCell>
        <mxCell id="UypfmnPjNJXxVJJN-o11-45" value="&lt;font style=&quot;font-size: 8px;&quot;&gt;Makes API calls to (HTTPS)&lt;/font&gt;" style="edgeLabel;html=1;align=center;verticalAlign=middle;resizable=0;points=[];" vertex="1" connectable="0" parent="9">
          <mxGeometry x="0.0333" relative="1" as="geometry">
            <mxPoint as="offset" />
          </mxGeometry>
        </mxCell>
        <mxCell id="11" value="" style="endArrow=open;strokeColor=#FF0000;endFill=1;rounded=0;entryX=0.484;entryY=0.011;entryDx=0;entryDy=0;entryPerimeter=0;" parent="2" source="UypfmnPjNJXxVJJN-o11-50" edge="1">
          <mxGeometry relative="1" as="geometry">
            <mxPoint x="115.03899021940265" y="254" as="sourcePoint" />
            <mxPoint x="115.11799999999994" y="284.39599999999996" as="targetPoint" />
          </mxGeometry>
        </mxCell>
        <mxCell id="UypfmnPjNJXxVJJN-o11-41" value="&lt;font style=&quot;font-size: 10px;&quot;&gt;&lt;b&gt;User&lt;/b&gt;&lt;/font&gt;" style="shape=umlActor;verticalLabelPosition=bottom;verticalAlign=top;html=1;" vertex="1" parent="2">
          <mxGeometry x="100" y="34" width="30" height="46" as="geometry" />
        </mxCell>
        <mxCell id="UypfmnPjNJXxVJJN-o11-43" value="&lt;p style=&quot;margin:0px;margin-top:6px;text-align:center;&quot;&gt;&lt;b&gt;&lt;font style=&quot;font-size: 10px;&quot;&gt;To-Do web Application&lt;/font&gt;&lt;/b&gt;&lt;/p&gt;" style="align=left;overflow=fill;html=1;dropTarget=0;whiteSpace=wrap;" vertex="1" parent="2">
          <mxGeometry x="35.5" y="132" width="170" height="38" as="geometry" />
        </mxCell>
        <mxCell id="UypfmnPjNJXxVJJN-o11-44" value="" style="shape=component;jettyWidth=8;jettyHeight=4;" vertex="1" parent="UypfmnPjNJXxVJJN-o11-43">
          <mxGeometry x="1" width="20" height="20" relative="1" as="geometry">
            <mxPoint x="-24" y="4" as="offset" />
          </mxGeometry>
        </mxCell>
        <mxCell id="UypfmnPjNJXxVJJN-o11-50" value="&lt;b&gt;&lt;font style=&quot;font-size: 10px;&quot;&gt;Trello&lt;/font&gt;&lt;/b&gt;" style="html=1;whiteSpace=wrap;" vertex="1" parent="2">
          <mxGeometry x="58.5" y="224" width="110" height="32" as="geometry" />
        </mxCell>
        <mxCell id="UypfmnPjNJXxVJJN-o11-81" value="&lt;p style=&quot;margin:0px;margin-top:6px;text-align:center;&quot;&gt;&lt;b&gt;&lt;font style=&quot;font-size: 10px;&quot;&gt;Container&lt;/font&gt;&lt;/b&gt;&lt;/p&gt;&lt;hr&gt;&lt;p style=&quot;margin:0px;margin-left:8px;&quot;&gt;&lt;font style=&quot;font-size: 9px;&quot;&gt;+ Gunicorn&lt;/font&gt;&lt;/p&gt;&lt;p style=&quot;margin:0px;margin-left:8px;&quot;&gt;&lt;font style=&quot;font-size: 9px;&quot;&gt;+ Python 3.11.5-slim-bullseye&lt;br&gt;+ Poetry&lt;br&gt;&lt;/font&gt;&lt;/p&gt;&lt;p style=&quot;margin:0px;margin-left:8px;&quot;&gt;&lt;font style=&quot;font-size: 9px;&quot;&gt;+ Flask&lt;/font&gt;&lt;/p&gt;&lt;p style=&quot;margin:0px;margin-left:8px;&quot;&gt;&lt;font style=&quot;font-size: 9px;&quot;&gt;+ Application code&lt;br&gt;&lt;/font&gt;&lt;/p&gt;" style="align=left;overflow=fill;html=1;dropTarget=0;whiteSpace=wrap;" vertex="1" parent="2">
          <mxGeometry x="23.5" y="285" width="180" height="115" as="geometry" />
        </mxCell>
        <mxCell id="UypfmnPjNJXxVJJN-o11-82" value="" style="shape=component;jettyWidth=8;jettyHeight=4;" vertex="1" parent="UypfmnPjNJXxVJJN-o11-81">
          <mxGeometry x="1" width="20" height="20" relative="1" as="geometry">
            <mxPoint x="-24" y="4" as="offset" />
          </mxGeometry>
        </mxCell>
        <mxCell id="3" value="To-Do App Container diagram" style="swimlane;whiteSpace=wrap" parent="1" vertex="1">
          <mxGeometry x="330" y="350" width="245" height="310" as="geometry" />
        </mxCell>
        <mxCell id="UypfmnPjNJXxVJJN-o11-48" value="&lt;p style=&quot;margin:0px;margin-top:6px;text-align:center;&quot;&gt;&lt;b&gt;&lt;font style=&quot;font-size: 10px;&quot;&gt;Application Code&lt;/font&gt;&lt;/b&gt;&lt;/p&gt;&lt;hr&gt;&lt;p style=&quot;margin:0px;margin-left:8px;&quot;&gt;&lt;font style=&quot;font-size: 9px;&quot;&gt;+ Routing and variable config&lt;br&gt;+ HTML templates&lt;/font&gt;&lt;/p&gt;&lt;p style=&quot;margin:0px;margin-left:8px;&quot;&gt;&lt;font style=&quot;font-size: 9px;&quot;&gt;+ data&lt;br&gt;&lt;/font&gt;&lt;/p&gt;" style="align=left;overflow=fill;html=1;dropTarget=0;whiteSpace=wrap;" vertex="1" parent="3">
          <mxGeometry x="35" y="200" width="180" height="90" as="geometry" />
        </mxCell>
        <mxCell id="UypfmnPjNJXxVJJN-o11-49" value="" style="shape=component;jettyWidth=8;jettyHeight=4;" vertex="1" parent="UypfmnPjNJXxVJJN-o11-48">
          <mxGeometry x="1" width="20" height="20" relative="1" as="geometry">
            <mxPoint x="-24" y="4" as="offset" />
          </mxGeometry>
        </mxCell>
        <mxCell id="UypfmnPjNJXxVJJN-o11-53" value="&lt;font style=&quot;font-size: 10px;&quot;&gt;&lt;b&gt;Gunicorn&lt;/b&gt;&lt;/font&gt;" style="html=1;whiteSpace=wrap;" vertex="1" parent="3">
          <mxGeometry x="65" y="60" width="110" height="30" as="geometry" />
        </mxCell>
        <mxCell id="UypfmnPjNJXxVJJN-o11-54" value="&lt;font style=&quot;font-size: 10px;&quot;&gt;&lt;b&gt;Flask&lt;/b&gt;&lt;/font&gt;" style="html=1;whiteSpace=wrap;" vertex="1" parent="3">
          <mxGeometry x="65" y="120" width="110" height="30" as="geometry" />
        </mxCell>
        <mxCell id="UypfmnPjNJXxVJJN-o11-60" value="" style="endArrow=open;strokeColor=#FF0000;endFill=1;rounded=0;entryX=0.5;entryY=0;entryDx=0;entryDy=0;exitX=0.5;exitY=1;exitDx=0;exitDy=0;" edge="1" parent="3" source="UypfmnPjNJXxVJJN-o11-53" target="UypfmnPjNJXxVJJN-o11-54">
          <mxGeometry relative="1" as="geometry">
            <mxPoint x="-164.5" y="-68" as="sourcePoint" />
            <mxPoint x="-163.5" y="-40" as="targetPoint" />
          </mxGeometry>
        </mxCell>
        <mxCell id="UypfmnPjNJXxVJJN-o11-61" value="" style="endArrow=open;strokeColor=#FF0000;endFill=1;rounded=0;exitX=0.5;exitY=1;exitDx=0;exitDy=0;" edge="1" parent="3" source="UypfmnPjNJXxVJJN-o11-54">
          <mxGeometry relative="1" as="geometry">
            <mxPoint x="130" y="100" as="sourcePoint" />
            <mxPoint x="120" y="200" as="targetPoint" />
          </mxGeometry>
        </mxCell>
        <mxCell id="UypfmnPjNJXxVJJN-o11-47" value="To-Do App Application code" style="swimlane;whiteSpace=wrap" vertex="1" parent="1">
          <mxGeometry x="690" y="416.5" width="420" height="357" as="geometry" />
        </mxCell>
        <mxCell id="UypfmnPjNJXxVJJN-o11-64" value="&lt;p style=&quot;margin:0px;margin-top:6px;text-align:center;&quot;&gt;&lt;b&gt;&lt;font style=&quot;font-size: 10px;&quot;&gt;HTML templates&lt;/font&gt;&lt;/b&gt;&lt;/p&gt;&lt;hr&gt;&lt;p style=&quot;margin:0px;margin-left:8px;&quot;&gt;&lt;font style=&quot;font-size: 9px;&quot;&gt;+ index.html&lt;br&gt;+ layout.html&lt;/font&gt;&lt;/p&gt;" style="align=left;overflow=fill;html=1;dropTarget=0;whiteSpace=wrap;" vertex="1" parent="UypfmnPjNJXxVJJN-o11-47">
          <mxGeometry x="10" y="233.5" width="140" height="66.5" as="geometry" />
        </mxCell>
        <mxCell id="UypfmnPjNJXxVJJN-o11-65" value="" style="shape=component;jettyWidth=8;jettyHeight=4;" vertex="1" parent="UypfmnPjNJXxVJJN-o11-64">
          <mxGeometry x="1" width="20" height="20" relative="1" as="geometry">
            <mxPoint x="-24" y="4" as="offset" />
          </mxGeometry>
        </mxCell>
        <mxCell id="UypfmnPjNJXxVJJN-o11-66" value="&lt;p style=&quot;margin:0px;margin-top:6px;text-align:center;&quot;&gt;&lt;b&gt;&lt;font style=&quot;font-size: 10px;&quot;&gt;data&lt;/font&gt;&lt;/b&gt;&lt;/p&gt;&lt;hr&gt;&lt;p style=&quot;margin:0px;margin-left:8px;&quot;&gt;&lt;font style=&quot;font-size: 9px;&quot;&gt;+ trello_items.py&lt;br&gt;+ session_items.py&lt;/font&gt;&lt;/p&gt;&lt;p style=&quot;margin:0px;margin-left:8px;&quot;&gt;&lt;font style=&quot;font-size: 9px;&quot;&gt;+ view_model.py&lt;br&gt;&lt;/font&gt;&lt;/p&gt;" style="align=left;overflow=fill;html=1;dropTarget=0;whiteSpace=wrap;" vertex="1" parent="UypfmnPjNJXxVJJN-o11-47">
          <mxGeometry x="260" y="233.5" width="140" height="86.5" as="geometry" />
        </mxCell>
        <mxCell id="UypfmnPjNJXxVJJN-o11-67" value="" style="shape=component;jettyWidth=8;jettyHeight=4;" vertex="1" parent="UypfmnPjNJXxVJJN-o11-66">
          <mxGeometry x="1" width="20" height="20" relative="1" as="geometry">
            <mxPoint x="-24" y="4" as="offset" />
          </mxGeometry>
        </mxCell>
        <mxCell id="UypfmnPjNJXxVJJN-o11-77" style="edgeStyle=orthogonalEdgeStyle;rounded=0;orthogonalLoop=1;jettySize=auto;html=1;entryX=0.5;entryY=0;entryDx=0;entryDy=0;strokeColor=#FF3333;" edge="1" parent="UypfmnPjNJXxVJJN-o11-47" source="UypfmnPjNJXxVJJN-o11-75" target="UypfmnPjNJXxVJJN-o11-64">
          <mxGeometry relative="1" as="geometry" />
        </mxCell>
        <mxCell id="UypfmnPjNJXxVJJN-o11-78" style="edgeStyle=orthogonalEdgeStyle;rounded=0;orthogonalLoop=1;jettySize=auto;html=1;entryX=0.5;entryY=0;entryDx=0;entryDy=0;fillColor=#FF0000;strokeColor=#FF3333;" edge="1" parent="UypfmnPjNJXxVJJN-o11-47" source="UypfmnPjNJXxVJJN-o11-75" target="UypfmnPjNJXxVJJN-o11-66">
          <mxGeometry relative="1" as="geometry" />
        </mxCell>
        <mxCell id="UypfmnPjNJXxVJJN-o11-75" value="&lt;p style=&quot;margin:0px;margin-top:6px;text-align:center;&quot;&gt;&lt;b&gt;&lt;font style=&quot;font-size: 10px;&quot;&gt;Routing and variable config&lt;/font&gt;&lt;/b&gt;&lt;/p&gt;&lt;hr&gt;&lt;p style=&quot;margin:0px;margin-left:8px;&quot;&gt;&lt;font style=&quot;font-size: 9px;&quot;&gt;+ flask_config.py &lt;i&gt;(holds config for flask)&lt;/i&gt;&lt;/font&gt;&lt;/p&gt;&lt;p style=&quot;margin:0px;margin-left:8px;&quot;&gt;&lt;font style=&quot;font-size: 9px;&quot;&gt;+ app.py &lt;i&gt;(calls functions defined in data to create app and manage Trello board)&lt;/i&gt;&lt;/font&gt;&lt;/p&gt;&lt;p style=&quot;margin:0px;margin-left:8px;&quot;&gt;&lt;font style=&quot;font-size: 9px;&quot;&gt;+ env.template &lt;i&gt;(holds flask server config, API tokens and Trello board IDs)&lt;/i&gt;&lt;/font&gt;&lt;/p&gt;" style="align=left;overflow=fill;html=1;dropTarget=0;whiteSpace=wrap;" vertex="1" parent="UypfmnPjNJXxVJJN-o11-47">
          <mxGeometry x="70" y="53.5" width="280" height="123" as="geometry" />
        </mxCell>
        <mxCell id="UypfmnPjNJXxVJJN-o11-76" value="" style="shape=component;jettyWidth=8;jettyHeight=4;" vertex="1" parent="UypfmnPjNJXxVJJN-o11-75">
          <mxGeometry x="1" width="20" height="20" relative="1" as="geometry">
            <mxPoint x="-24" y="4" as="offset" />
          </mxGeometry>
        </mxCell>
        <mxCell id="UypfmnPjNJXxVJJN-o11-57" style="edgeStyle=orthogonalEdgeStyle;rounded=0;orthogonalLoop=1;jettySize=auto;html=1;entryX=0.5;entryY=0;entryDx=0;entryDy=0;strokeColor=#FF3333;" edge="1" parent="1" source="UypfmnPjNJXxVJJN-o11-48" target="UypfmnPjNJXxVJJN-o11-47">
          <mxGeometry relative="1" as="geometry" />
        </mxCell>
        <mxCell id="UypfmnPjNJXxVJJN-o11-58" style="edgeStyle=orthogonalEdgeStyle;rounded=0;orthogonalLoop=1;jettySize=auto;html=1;entryX=0.476;entryY=-0.006;entryDx=0;entryDy=0;entryPerimeter=0;strokeColor=#FF3333;" edge="1" parent="1" target="3">
          <mxGeometry relative="1" as="geometry">
            <mxPoint x="250" y="330" as="sourcePoint" />
          </mxGeometry>
        </mxCell>
      </root>
    </mxGraphModel>
  </diagram>
</mxfile>
